# xmcd
#
# Track frame offsets: 
#        150
#        53718
#        78836
#        97942
#        116654
#        142415
#        166444
#        192543
#        215016
#        236015
#        255496
#
# Disc length: 3706 seconds
#
# Revision: 0
# Processed by: cddbd v1.5.1PL0 Copyright (c) Steve Scherf et al.
# Submitted via: ExactAudioCopy v0.95b2
#
DISCID=9d0e780b
DTITLE=Boom Boom's Blues Factory - Ralf Becker - At The First Time It 
DTITLE=Hurts A Little Bit - Live
DYEAR=2005
DGENRE=Blues
TTITLE0=Red House
TTITLE1=Rollin' And Tumblin'
TTITLE2=Route 66
TTITLE3=Back In The Night
TTITLE4=Get Out Of My Life Woman
TTITLE5=Pride and Joy
TTITLE6=The Thrill Is Gone
TTITLE7=You Got Me Running
TTITLE8=Summertime
TTITLE9=Down At The Doctor
TTITLE10=Mojos Working
EXTD=
EXTT0=
EXTT1=
EXTT2=
EXTT3=
EXTT4=
EXTT5=
EXTT6=
EXTT7=
EXTT8=
EXTT9=
EXTT10=
PLAYORDER=
